<svg width="42" height="27" viewBox="0 0 42 27" fill="none" xmlns="http://www.w3.org/2000/svg">
<path d="M11.5596 14.2543H39.5148C40.3343 14.2543 40.9985 14.9185 40.9985 15.738C40.9985 16.5574 40.3343 17.2217 39.5148 17.2217H34.1273" stroke="#E84600" stroke-miterlimit="10" stroke-linecap="round" stroke-linejoin="round"/>
<path d="M31.7092 17.2217H2.48371C1.66427 17.2217 1 16.5574 1 15.738C1 14.9185 1.66427 14.2543 2.48371 14.2543H9.14152" stroke="#E84600" stroke-miterlimit="10" stroke-linecap="round" stroke-linejoin="round"/>
<path d="M26.5363 24.9007L21.6754 17.5817C21.3564 17.1013 20.6509 17.1013 20.3318 17.5817L15.471 24.9007C15.115 25.4366 15.4993 26.1533 16.1427 26.1533H25.8645C26.508 26.1533 26.8922 25.4366 26.5363 24.9007Z" stroke="#E84600" stroke-miterlimit="10" stroke-linecap="round" stroke-linejoin="round"/>
<path d="M16.1347 8.64258H5.26271C5.10312 8.64258 4.94973 8.58048 4.83513 8.46943L3.54143 7.21621C3.42191 7.10048 3.35449 6.94121 3.35449 6.77484V4.0838C3.35449 3.65614 3.70119 3.30953 4.12877 3.30953H17.2687C17.6962 3.30953 18.0429 3.65614 18.0429 4.0838V6.77484C18.0429 6.94121 17.9755 7.10048 17.856 7.21621L16.5623 8.46943C16.4477 8.58048 16.2943 8.64258 16.1347 8.64258Z" stroke="#E84600" stroke-miterlimit="10" stroke-linecap="round" stroke-linejoin="round"/>
<path d="M16.8867 14.2539C17.3143 14.2539 17.661 13.9073 17.661 13.4796V7.40255" stroke="#E84600" stroke-miterlimit="10" stroke-linecap="round" stroke-linejoin="round"/>
<path d="M3.72949 7.40255V13.4796C3.72949 13.9072 4.07619 14.2539 4.50385 14.2539" stroke="#E84600" stroke-miterlimit="10" stroke-linecap="round" stroke-linejoin="round"/>
<path d="M13.0984 3.30957V1.98127C13.0984 1.44683 12.6652 1.01369 12.1308 1.01369H9.2634C8.72904 1.01369 8.2959 1.44683 8.2959 1.98127V3.30957" stroke="#E84600" stroke-miterlimit="10" stroke-linecap="round" stroke-linejoin="round"/>
<path d="M9.30566 8.64279V9.84892C9.30566 10.6157 9.92728 11.2373 10.6941 11.2373C11.4609 11.2373 12.0825 10.6157 12.0825 9.84892V8.64279" stroke="#E84600" stroke-miterlimit="10" stroke-linecap="round" stroke-linejoin="round"/>
<path d="M26.0328 4.85586L23.6894 6.87287C22.9946 7.47094 23.4175 8.61069 24.3343 8.61069H25.2259V14.2539" stroke="#E84600" stroke-miterlimit="10" stroke-linecap="round" stroke-linejoin="round"/>
<path d="M36.9527 14.2539V8.61069H37.8443C38.761 8.61069 39.184 7.47102 38.4892 6.87295L32.104 1.377C31.5206 0.874903 30.6577 0.874903 30.0744 1.377L27.8672 3.27675" stroke="#E84600" stroke-miterlimit="10" stroke-linecap="round" stroke-linejoin="round"/>
<path d="M32.9207 14.2539V11.4821C32.9207 10.4738 32.1034 9.65642 31.0951 9.65642C30.0869 9.65642 29.2695 10.4738 29.2695 11.4821V14.2539" stroke="#E84600" stroke-miterlimit="10" stroke-linecap="round" stroke-linejoin="round"/>
</svg>
