<svg width="49" height="44" viewBox="0 0 49 44" fill="none" xmlns="http://www.w3.org/2000/svg">
<path d="M44.1694 1.1001C44.7826 0.819243 45.4824 0.792548 46.1157 1.0249C46.7508 1.25805 47.2678 1.73382 47.5532 2.34717L47.5571 2.35596C47.8553 2.96779 47.905 3.67148 47.6948 4.31885L47.6938 4.32178C47.5928 4.63891 47.4278 4.93186 47.2095 5.18311C46.9911 5.43446 46.7234 5.63842 46.4233 5.78271L14.8452 20.813L14.5601 20.9487V42.0786H47.3726C47.4988 42.0786 47.6202 42.129 47.7095 42.2183C47.7988 42.3075 47.8491 42.4289 47.8491 42.5552C47.8491 42.6815 47.7988 42.8028 47.7095 42.8921C47.6202 42.9814 47.4988 43.0317 47.3726 43.0317H1.62744C1.50122 43.0317 1.37981 42.9813 1.29053 42.8921C1.20123 42.8028 1.15088 42.6815 1.15088 42.5552C1.1509 42.4289 1.20125 42.3075 1.29053 42.2183C1.37981 42.1291 1.50126 42.0786 1.62744 42.0786H3.10303V18.9712C3.10481 17.6079 3.59277 16.2892 4.47803 15.2524C5.36317 14.216 6.58823 13.5284 7.93408 13.313L8.35596 13.2456V6.61377C8.35596 6.48761 8.4055 6.36613 8.49463 6.27686C8.58389 6.1876 8.70532 6.13725 8.83154 6.13721C8.95783 6.13721 9.07916 6.18755 9.16846 6.27686C9.25769 6.36615 9.30811 6.48753 9.30811 6.61377V13.2456L9.729 13.313C11.1288 13.5365 12.396 14.271 13.2856 15.3745L13.5337 15.6821L13.8901 15.5122L44.1694 1.1001ZM22.0757 12.6714L14.438 16.3071L14.021 16.5054L14.1851 16.937C14.4328 17.5862 14.5603 18.2753 14.5601 18.9702V19.894L15.2749 19.5542L22.4019 16.1616L22.6743 16.0317L22.686 15.73L22.7905 13.1431L22.8237 12.3159L22.0757 12.6714ZM45.8257 1.93311C45.4313 1.77703 44.9908 1.78331 44.6011 1.95068L44.5835 1.9585L28.522 9.60303L28.2495 9.73291L28.2378 10.0347L28.1333 12.6216L28.1001 13.4497L28.8481 13.0933L46.0122 4.92432L46.0181 4.92139C46.2016 4.83099 46.3646 4.70381 46.4976 4.54834C46.6297 4.39373 46.7297 4.21407 46.7905 4.02002C46.9208 3.6117 46.8887 3.17007 46.7046 2.78369H46.7065C46.5369 2.39501 46.22 2.0892 45.8257 1.93311ZM10.4214 19.1187C10.4208 18.6974 10.2535 18.2935 9.95557 17.9956C9.65765 17.6977 9.25381 17.5303 8.83252 17.5298H8.83154C8.51725 17.5298 8.21009 17.6228 7.94873 17.7974C7.68724 17.9721 7.48314 18.2207 7.36279 18.5112C7.24248 18.8018 7.21063 19.1218 7.27197 19.4302C7.33336 19.7385 7.48526 20.0214 7.70752 20.2437C7.92989 20.466 8.21353 20.6178 8.52197 20.6792C8.83022 20.7404 9.14959 20.7086 9.43994 20.5884C9.73037 20.4681 9.9791 20.2648 10.1538 20.0034C10.3285 19.7419 10.4214 19.4341 10.4214 19.1196V19.1187Z" stroke="#E84600"/>
</svg>
