<svg width="47" height="48" viewBox="0 0 47 48" fill="none" xmlns="http://www.w3.org/2000/svg">
<path fill-rule="evenodd" clip-rule="evenodd" d="M42.0288 8.13265C44.7099 9.15272 46.6799 11.6114 46.9957 14.5644C47.0186 14.7782 46.9494 14.9917 46.8056 15.1517C46.6617 15.3116 46.4566 15.403 46.2413 15.403H32.2803C32.065 15.403 31.8598 15.3115 31.716 15.1515C31.5721 14.9914 31.503 14.7778 31.526 14.564C31.8433 11.611 33.8141 9.15243 36.4943 8.13246C35.5534 7.34151 34.9539 6.15675 34.9539 4.83687C34.9539 2.46593 36.8882 0.53125 39.2609 0.53125C41.6357 0.53125 43.5696 2.46602 43.5696 4.83687C43.5696 6.15685 42.9701 7.34161 42.0288 8.13265ZM39.2609 7.62626C40.7995 7.62626 42.0524 6.3728 42.0524 4.83687C42.0524 3.30084 40.7995 2.04738 39.2609 2.04738C37.7239 2.04738 36.4712 3.30093 36.4712 4.83687C36.4712 6.37271 37.7239 7.62626 39.2609 7.62626ZM39.2609 9.14239C36.3252 9.14239 33.861 11.1619 33.1833 13.8868H45.3389C44.6625 11.1619 42.1981 9.14239 39.2609 9.14239ZM26.1965 14.9314C26.9034 15.1317 27.5838 15.4134 28.226 15.7719L29.5275 15.1936C29.8144 15.0662 30.1502 15.1284 30.3722 15.3503L32.3244 17.3011C32.5461 17.5226 32.6086 17.8576 32.4816 18.144L31.9049 19.445C32.264 20.0872 32.5462 20.7681 32.7467 21.4767L34.0739 21.987C34.3667 22.0997 34.56 22.3809 34.56 22.6945V25.4539C34.56 25.7676 34.3667 26.0487 34.0739 26.1614C34.0739 26.1614 32.7462 26.6721 32.7462 26.672C32.5454 27.3783 32.2622 28.0583 31.9045 28.6999L32.4816 30.0017C32.6086 30.2881 32.5461 30.6231 32.3244 30.8446L30.3722 32.7954C30.1504 33.017 29.8151 33.0794 29.5285 32.9525C29.5285 32.9525 28.227 32.3765 28.2271 32.3765C27.5858 32.7351 26.9038 33.0169 26.1963 33.2171L25.6854 34.5436C25.5727 34.8363 25.2912 35.0293 24.9774 35.0293H22.2159C21.902 35.0293 21.6206 34.8363 21.5079 34.5436L20.9971 33.2173C20.2882 33.0166 19.6072 32.7335 18.9648 32.3759L17.662 32.9525C17.3754 33.0794 17.04 33.017 16.8183 32.7954L14.8661 30.8446C14.6441 30.6228 14.5818 30.2873 14.7093 30.0006C14.7093 30.0006 15.2878 28.7006 15.2879 28.7006C14.9292 28.0602 14.6471 27.379 14.4452 26.6723L13.1167 26.1614C12.8237 26.0487 12.6305 25.7676 12.6305 25.4539V22.6945C12.6305 22.3809 12.8237 22.0997 13.1167 21.987C13.1167 21.987 14.4449 21.4762 14.4449 21.4763C14.6469 20.768 14.9291 20.0875 15.2881 19.4455L14.7093 18.1451C14.5818 17.8584 14.6441 17.5229 14.8661 17.3011L16.8183 15.3503C17.0403 15.1284 17.3761 15.0662 17.663 15.1936L18.9645 15.7719C19.6069 15.4133 20.2876 15.1315 20.9946 14.9313L21.5081 13.6015C21.621 13.3091 21.9023 13.1164 22.2159 13.1164H24.9774C25.2914 13.1164 25.573 13.3096 25.6855 13.6025L26.1965 14.9314ZM24.92 15.8386L24.4562 14.6325H22.7363L22.2701 15.8396C22.1802 16.0727 21.981 16.2465 21.7378 16.3042C20.9154 16.4995 20.1311 16.8242 19.4102 17.2681C19.197 17.3993 18.9328 17.417 18.704 17.3154L17.5227 16.7905L16.3075 18.0049L16.8327 19.1853C16.9344 19.4139 16.9167 19.678 16.7853 19.891C16.3409 20.6118 16.0158 21.3962 15.8176 22.2212C15.7594 22.4638 15.5855 22.6622 15.3525 22.7517L14.1477 23.215V24.9334L15.3525 25.3967C15.5853 25.4863 15.7591 25.6844 15.8175 25.9268C16.0156 26.7489 16.3404 27.5356 16.7848 28.2538C16.9167 28.4669 16.9346 28.7314 16.8327 28.9605L16.3075 30.1408L17.5233 31.3558L18.705 30.8327C18.9329 30.7318 19.196 30.7492 19.4086 30.8794C20.1299 31.321 20.9146 31.6487 21.7401 31.8441C21.9838 31.9019 22.1832 32.0759 22.2732 32.3095L22.7368 33.5132H24.4565L24.9201 32.3095C25.01 32.0761 25.2093 31.902 25.4527 31.8442C26.2747 31.649 27.0613 31.3247 27.7792 30.881C27.9922 30.7494 28.2565 30.7313 28.4855 30.8327L29.6672 31.3558L30.8836 30.1403L30.3601 28.9594C30.2592 28.7316 30.2767 28.4689 30.4069 28.2564C30.8489 27.5355 31.1769 26.7514 31.3725 25.929C31.4304 25.6856 31.6046 25.4865 31.838 25.3967L33.0427 24.9334V23.215L31.838 22.7517C31.6044 22.6619 31.4301 22.4625 31.3723 22.219C31.177 21.3948 30.8521 20.6111 30.4079 19.891C30.2768 19.6783 30.2589 19.4146 30.3601 19.1863L30.8836 18.0054L29.6678 16.7905L28.4865 17.3154C28.2577 17.417 27.9935 17.3993 27.7803 17.2681C27.0594 16.8242 26.2752 16.4995 25.4527 16.3042C25.2091 16.2464 25.0098 16.0721 24.92 15.8386ZM23.5953 18.5017C26.6757 18.5017 29.1733 20.9947 29.1733 24.0728C29.1733 27.1509 26.6755 29.6467 23.5953 29.6467C20.5149 29.6467 18.02 27.151 18.02 24.0728C18.02 20.9946 20.5147 18.5017 23.5953 18.5017ZM23.5953 20.0179C21.3531 20.0179 19.5373 21.8323 19.5373 24.0728C19.5373 26.3135 21.353 28.1306 23.5953 28.1306C25.8377 28.1306 27.6561 26.3136 27.6561 24.0728C27.6561 21.8322 25.8376 20.0179 23.5953 20.0179ZM8.04777 0.777905C12.323 0.777905 15.7869 4.23923 15.7869 8.51121C15.7869 12.7833 12.323 16.2446 8.04777 16.2446C3.77249 16.2446 0.308574 12.7833 0.308574 8.51121C0.308574 4.23923 3.77249 0.777905 8.04777 0.777905ZM8.04777 2.29403C4.61069 2.29403 1.82584 5.07679 1.82584 8.51121C1.82584 11.9457 4.61069 14.7285 8.04777 14.7285C11.4849 14.7285 14.2696 11.9457 14.2696 8.51121C14.2696 5.07679 11.4849 2.29403 8.04777 2.29403ZM4.87194 12.7558C4.57588 13.0516 4.0951 13.0516 3.79904 12.7558C3.50299 12.46 3.50299 11.9795 3.79904 11.6837L4.20207 11.2811C4.49813 10.9852 4.97881 10.9852 5.27487 11.2811C5.57102 11.5769 5.57102 12.0572 5.27487 12.3531L4.87194 12.7558ZM13.2951 7.75314C13.7139 7.75314 14.0538 8.09285 14.0538 8.51121C14.0538 8.92966 13.7139 9.26927 13.2951 9.26927H12.7252C12.3065 9.26927 11.9666 8.92966 11.9666 8.51121C11.9666 8.09285 12.3065 7.75314 12.7252 7.75314H13.2951ZM12.2945 11.6837C12.5906 11.9795 12.5906 12.46 12.2945 12.7558C11.9984 13.0516 11.5178 13.0516 11.2216 12.7558L10.8187 12.3531C10.5226 12.0572 10.5226 11.5769 10.8187 11.2811C11.1147 10.9852 11.5954 10.9852 11.8916 11.2811L12.2945 11.6837ZM7.28819 3.26872C7.28819 2.85036 7.62806 2.51065 8.04682 2.51065C8.46549 2.51065 8.80545 2.85036 8.80545 3.26872V3.83632C8.80545 4.25467 8.46549 4.59438 8.04682 4.59438C7.62806 4.59438 7.28819 4.25467 7.28819 3.83632V3.26872ZM8.80545 13.7538C8.80545 14.1721 8.46549 14.5119 8.04682 14.5119C7.62806 14.5119 7.28819 14.1721 7.28819 13.7538V13.1862C7.28819 12.7678 7.62806 12.4281 8.04682 12.4281C8.46549 12.4281 8.80545 12.7678 8.80545 13.1862V13.7538ZM2.8003 9.26927C2.38163 9.26927 2.04167 8.92966 2.04167 8.51121C2.04167 8.09285 2.38163 7.75314 2.8003 7.75314H3.36833C3.787 7.75314 4.12696 8.09285 4.12696 8.51121C4.12696 8.92966 3.787 9.26927 3.36833 9.26927H2.8003ZM7.28914 5.87267C7.28914 5.45431 7.629 5.1146 8.04777 5.1146C8.46644 5.1146 8.8064 5.45431 8.8064 5.87267V8.07352L10.1914 8.87233C10.5541 9.08146 10.6785 9.54549 10.4692 9.90784C10.2599 10.2702 9.79556 10.3946 9.43294 10.1855L7.66855 9.16778C7.43375 9.03237 7.28914 8.78212 7.28914 8.51121V5.87267ZM11.2216 4.26671C11.5178 3.97087 11.9984 3.97087 12.2945 4.26671C12.5906 4.56254 12.5906 5.04297 12.2945 5.3388L11.8916 5.74143C11.5954 6.03726 11.1147 6.03726 10.8187 5.74143C10.5226 5.44559 10.5226 4.96526 10.8187 4.66943L11.2216 4.26671ZM3.79904 5.3388C3.50299 5.04297 3.50299 4.56254 3.79904 4.26671C4.0951 3.97087 4.57588 3.97087 4.87194 4.26671L5.27487 4.66943C5.57102 4.96526 5.57102 5.44559 5.27487 5.74143C4.97881 6.03726 4.49813 6.03726 4.20207 5.74143L3.79904 5.3388ZM15.7869 34.5882V46.6079C15.7869 47.0266 15.4473 47.366 15.0282 47.366H12.0024C11.5835 47.366 11.2438 47.0266 11.2438 46.6079V34.5882C11.2438 34.1695 11.5835 33.8301 12.0024 33.8301H15.0282C15.4473 33.8301 15.7869 34.1695 15.7869 34.5882ZM14.2696 35.3462H12.7611V45.8499H14.2696V35.3462ZM10.1669 37.7647V46.6079C10.1669 47.0266 9.82733 47.366 9.40828 47.366H6.38247C5.96352 47.366 5.62384 47.0266 5.62384 46.6079V37.7647C5.62384 37.346 5.96352 37.0067 6.38247 37.0067H9.40828C9.82733 37.0067 10.1669 37.346 10.1669 37.7647ZM8.64965 38.5228H7.14111V45.8499H8.64965V38.5228ZM0.758633 40.0458H3.78833C4.20728 40.0458 4.54696 40.3853 4.54696 40.8039V46.6079C4.54696 47.0266 4.20728 47.366 3.78833 47.366H0.758633C0.339583 47.366 0 47.0266 0 46.6079V40.8039C0 40.3853 0.339583 40.0458 0.758633 40.0458ZM1.51727 41.562V45.8499H3.0297V41.562H1.51727ZM39.0497 47.5312C34.7881 47.5312 31.3105 44.0563 31.3105 39.7979C31.3105 35.5395 34.7881 32.0646 39.0497 32.0646C43.3112 32.0646 46.7888 35.5395 46.7888 39.7979C46.7888 44.0563 43.3112 47.5312 39.0497 47.5312ZM39.0497 46.0151C42.4758 46.0151 45.2715 43.2214 45.2715 39.7979C45.2715 36.3743 42.4758 33.5807 39.0497 33.5807C35.6236 33.5807 32.8278 36.3743 32.8278 39.7979C32.8278 43.2214 35.6236 46.0151 39.0497 46.0151ZM38.2911 35.7063V35.3833C38.2911 34.9648 38.6309 34.6252 39.0497 34.6252C39.4684 34.6252 39.8083 34.9648 39.8083 35.3833V35.6981C40.6412 35.8951 41.4056 36.4375 41.8039 37.3843C41.9662 37.7699 41.7846 38.2147 41.3986 38.3769C41.0126 38.539 40.5675 38.3575 40.4053 37.9719C40.0563 37.1424 39.1247 36.9782 38.4569 37.2409C38.0846 37.3873 37.7802 37.6829 37.8013 38.1197C37.8178 38.4564 38.0411 38.6446 38.3008 38.7715C38.5714 38.9036 38.8844 38.977 39.1788 39.0254C40.4536 39.2339 41.8454 39.8239 42.0305 41.3385L42.0306 41.3396C42.2076 42.8039 41.0485 43.6659 39.8083 43.9107V44.2125C39.8083 44.6309 39.4684 44.9706 39.0497 44.9706C38.6309 44.9706 38.2911 44.6309 38.2911 44.2125V43.8996C37.2467 43.6702 36.3527 42.9735 36.0746 41.8572C35.9734 41.4512 36.2212 41.0396 36.6275 40.9385C37.0338 40.8373 37.4457 41.085 37.5469 41.4909C37.7216 42.1921 38.4371 42.4829 39.1227 42.4668C39.497 42.4579 39.9144 42.3667 40.2215 42.1552C40.4216 42.0175 40.5593 41.8119 40.5244 41.5218C40.4769 41.1342 40.2075 40.9252 39.9002 40.7859C39.5979 40.6489 39.2548 40.5741 38.9338 40.5216L38.933 40.5215C37.683 40.3158 36.3584 39.6786 36.2858 38.1935V38.1931C36.2306 37.0526 36.9293 36.2124 37.9011 35.8301C38.0271 35.7806 38.1575 35.7392 38.2911 35.7063ZM40.2342 23.3148V17.9484C40.2342 17.53 40.5742 17.1904 40.9928 17.1904C41.4116 17.1904 41.7515 17.53 41.7515 17.9484V24.0714C41.7317 24.7688 40.9928 24.8309 40.9928 24.8309H36.234C35.8153 24.8309 35.4754 24.4912 35.4754 24.0728C35.4754 23.6545 35.8153 23.3148 36.234 23.3148H40.2342ZM23.5939 5.7311C24.3039 5.71527 24.4093 6.0853 24.3539 6.48916V11.2444C24.3539 11.6628 24.014 12.0025 23.5953 12.0025C23.1765 12.0025 22.8367 11.6628 22.8367 11.2444V7.24723H17.4662C17.0475 7.24723 16.7076 6.90752 16.7076 6.48916C16.7076 6.07071 17.0475 5.7311 17.4662 5.7311H23.5939ZM5.43902 24.0327C5.43902 23.3171 6.19765 23.2732 6.19765 23.2732H10.9565C11.3751 23.2732 11.7151 23.6129 11.7151 24.0312C11.7151 24.4496 11.3751 24.7893 10.9565 24.7893H6.95629V30.1557C6.95629 30.5741 6.61632 30.9137 6.19765 30.9137C5.77898 30.9137 5.43902 30.5741 5.43902 30.1557V24.0327ZM24.3539 41.4487H29.7243C30.143 41.4487 30.4829 41.7884 30.4829 42.2068C30.4829 42.6251 30.143 42.9649 29.7243 42.9649H23.5953C23.1762 42.9649 22.8367 42.6254 22.8367 42.2068V37.4515C22.8367 37.0332 23.1765 36.6935 23.5953 36.6935C24.014 36.6935 24.3539 37.0332 24.3539 37.4515V41.4487Z" fill="#E84600"/>
</svg>
