<svg width="13" height="14" viewBox="0 0 13 14" fill="none" xmlns="http://www.w3.org/2000/svg">
<g clip-path="url(#clip0_725_9645)">
<path d="M13 7.44531C13 3.85569 10.0896 0.945312 6.5 0.945312C2.91038 0.945312 0 3.85569 0 7.44531C0 10.6899 2.37683 13.3787 5.48438 13.8662V9.32435H3.83392V7.44477H5.48438V6.01369C5.48438 4.3849 6.45504 3.48465 7.93975 3.48465C8.65042 3.48465 9.39467 3.61194 9.39467 3.61194V5.21148H8.57458C7.76696 5.21148 7.51508 5.71252 7.51508 6.22656V7.44531H9.31775L9.02958 9.32489H7.51508V13.8668C10.6232 13.3787 13 10.6894 13 7.44531Z" fill="white"/>
</g>
<defs>
<clipPath id="clip0_725_9645">
<rect width="13" height="13" fill="white" transform="translate(0 0.905273)"/>
</clipPath>
</defs>
</svg>
