<svg width="47" height="48" viewBox="0 0 47 48" fill="none" xmlns="http://www.w3.org/2000/svg">
<path fill-rule="evenodd" clip-rule="evenodd" d="M14.5398 14.2469V5.7668C15.7255 5.49952 16.6148 4.43816 16.6148 3.17195C16.6148 1.81599 15.5958 0.69416 14.2843 0.53125H13.6271C12.3156 0.69416 11.2966 1.81599 11.2966 3.17195C11.2966 4.43719 12.1849 5.49952 13.3706 5.7668V13.8869H5.25386C4.98668 12.7007 3.92577 11.8111 2.66008 11.8111C1.19353 11.8111 0.000975033 13.0051 0.000975033 14.4722C0.000975033 15.9394 1.19353 17.1325 2.66008 17.1325C3.92577 17.1325 4.98668 16.2438 5.25386 15.0575H13.7314C13.8884 15.0575 14.0395 14.9941 14.1497 14.882C14.2209 14.8088 14.2921 14.7376 14.3652 14.6664C14.4764 14.5561 14.5398 14.4049 14.5398 14.2469ZM40.5458 24.0215C40.5458 24.3444 40.8081 24.6068 41.1309 24.6068H43.594C43.9167 24.6068 44.179 24.3444 44.179 24.0215C44.179 23.6986 43.9167 23.4362 43.594 23.4362H41.1309C40.8091 23.4362 40.5458 23.6976 40.5458 24.0215ZM35.1564 24.0215C35.1564 24.3444 35.4187 24.6068 35.7415 24.6068H38.2046C38.5273 24.6068 38.7896 24.3444 38.7896 24.0215C38.7896 23.6986 38.5273 23.4362 38.2046 23.4362H35.7415C35.4187 23.4362 35.1564 23.6976 35.1564 24.0215ZM30.3521 24.6068H32.8152C33.1379 24.6068 33.4002 24.3444 33.4002 24.0215C33.4002 23.6986 33.1379 23.4362 32.8152 23.4362H30.3521C30.0293 23.4362 29.767 23.6986 29.767 24.0215C29.767 24.3444 30.0293 24.6068 30.3521 24.6068ZM32.4602 33.7951V42.2752C31.2745 42.5425 30.3852 43.6039 30.3852 44.8701C30.3852 46.3372 31.5787 47.5303 33.0453 47.5303C34.5118 47.5303 35.7044 46.3363 35.7044 44.8701C35.7044 43.6039 34.8161 42.5425 33.6304 42.2752V34.1551H41.7471C42.0143 35.3413 43.0752 36.23 44.3409 36.23C45.8074 36.23 47 35.036 47 33.5698C47 32.1026 45.8074 30.9086 44.3409 30.9086C43.0752 30.9086 42.0143 31.7973 41.7471 32.9835H33.2696C33.1126 32.9835 32.9614 33.0469 32.8512 33.1601C32.7801 33.2322 32.7089 33.3044 32.6357 33.3756C32.5246 33.4859 32.4602 33.6371 32.4602 33.7951ZM27.5847 31.4646C27.5847 31.2637 27.6881 31.0764 27.8577 30.9691C28.8972 30.3145 29.7923 29.42 30.4457 28.381C30.552 28.2113 30.7392 28.1069 30.941 28.1069H46.4149C46.7377 28.1069 47 28.3693 47 28.6922C47 29.0151 46.7377 29.2775 46.4149 29.2775H31.257C30.591 30.2579 29.7348 31.1144 28.7548 31.7807V46.945C28.7548 47.2679 28.4925 47.5303 28.1698 47.5303C27.847 47.5303 27.5847 47.2679 27.5847 46.945V31.4646ZM23.5 41.0744C23.1772 41.0744 22.9149 41.3358 22.9149 41.6597V44.1228C22.9149 44.4457 23.1772 44.7081 23.5 44.7081C23.8228 44.7081 24.0851 44.4457 24.0851 44.1228V41.6597C24.0851 41.3358 23.8228 41.0744 23.5 41.0744ZM23.5 35.6827C23.1772 35.6827 22.9149 35.9451 22.9149 36.268V38.7312C22.9149 39.0541 23.1772 39.3165 23.5 39.3165C23.8228 39.3165 24.0851 39.0541 24.0851 38.7312V36.268C24.0851 35.9451 23.8228 35.6827 23.5 35.6827ZM22.9149 30.8764V33.3396C22.9149 33.6634 23.1772 33.9249 23.5 33.9249C23.8228 33.9249 24.0851 33.6624 24.0851 33.3396V30.8764C24.0851 30.5535 23.8228 30.2911 23.5 30.2911C23.1772 30.2911 22.9149 30.5535 22.9149 30.8764ZM13.7304 32.9845H5.25386C4.98668 31.7982 3.92577 30.9096 2.66008 30.9096C1.19353 30.9096 0.000975033 32.1036 0.000975033 33.5707C0.000975033 35.0379 1.19353 36.231 2.66008 36.231C3.92577 36.231 4.98668 35.3423 5.25386 34.1561H13.3706V42.2762C12.1849 42.5435 11.2966 43.6048 11.2966 44.871C11.2966 46.3382 12.4891 47.5312 13.9557 47.5312C15.4222 47.5312 16.6158 46.3372 16.6158 44.871C16.6158 43.6048 15.7265 42.5435 14.5407 42.2762V33.7961C14.5407 33.6381 14.4774 33.4869 14.3652 33.3776C14.2921 33.3064 14.2209 33.2352 14.1497 33.162C14.0386 33.0489 13.8874 32.9845 13.7304 32.9845ZM16.059 28.1069C16.2608 28.1069 16.448 28.2103 16.5543 28.381C17.2086 29.4209 18.1028 30.3155 19.1423 30.9691C19.3119 31.0764 19.4153 31.2637 19.4153 31.4646V46.945C19.4153 47.2679 19.153 47.5303 18.8302 47.5303C18.5075 47.5303 18.2452 47.2679 18.2452 46.945V31.7817C17.2652 31.1154 16.409 30.2589 15.743 29.2785H0.585062C0.262303 29.2785 0 29.0161 0 28.6932C0 28.3693 0.262303 28.1079 0.585062 28.1079H16.059V28.1069ZM5.86915 24.6068C6.19191 24.6068 6.45421 24.3444 6.45421 24.0215C6.45421 23.6986 6.19191 23.4362 5.86915 23.4362H3.40604C3.08328 23.4362 2.82098 23.6986 2.82098 24.0215C2.82098 24.3444 3.08328 24.6068 3.40604 24.6068H5.86915ZM11.8436 24.0215C11.8436 23.6986 11.5813 23.4362 11.2585 23.4362H8.79544C8.47268 23.4362 8.21037 23.6986 8.21037 24.0215C8.21037 24.3444 8.47268 24.6068 8.79544 24.6068H11.2585C11.5813 24.6068 11.8436 24.3444 11.8436 24.0215ZM17.233 24.0215C17.233 23.6986 16.9707 23.4362 16.6479 23.4362H14.1848C13.8621 23.4362 13.5998 23.6986 13.5998 24.0215C13.5998 24.3444 13.8621 24.6068 14.1848 24.6068H16.6479C16.9707 24.6068 17.233 24.3444 17.233 24.0215ZM26.7354 24.0215C26.7354 22.2373 25.2835 20.7857 23.5 20.7857C21.7165 20.7857 20.2646 22.2373 20.2646 24.0215C20.2646 25.8067 21.7165 27.2582 23.5 27.2582C25.2835 27.2573 26.7354 25.8057 26.7354 24.0215ZM24.0851 14.7025C24.0851 14.3796 23.8228 14.1172 23.5 14.1172C23.1772 14.1172 22.9149 14.3796 22.9149 14.7025V17.1656C22.9149 17.4895 23.1772 17.7509 23.5 17.7509C23.8228 17.7509 24.0851 17.4895 24.0851 17.1656V14.7025ZM23.5 8.72552C23.1772 8.72552 22.9149 8.98793 22.9149 9.31083V11.774C22.9149 12.0969 23.1772 12.3593 23.5 12.3593C23.8228 12.3593 24.0851 12.0969 24.0851 11.774V9.31083C24.0851 8.98696 23.8228 8.72552 23.5 8.72552ZM22.9149 3.91919V6.38235C22.9149 6.70622 23.1772 6.96766 23.5 6.96766C23.8228 6.96766 24.0851 6.70524 24.0851 6.38235V3.91919C24.0851 3.5963 23.8228 3.33389 23.5 3.33389C23.1772 3.33389 22.9149 3.5963 22.9149 3.91919ZM19.4153 16.5774C19.4153 16.7783 19.3119 16.9656 19.1423 17.0729C18.1028 17.7275 17.2077 18.6221 16.5543 19.661C16.448 19.8307 16.2608 19.9351 16.059 19.9351H0.585062C0.262303 19.9351 0 19.6727 0 19.3498C0 19.0259 0.262303 18.7645 0.585062 18.7645H15.743C16.409 17.7841 17.2652 16.9276 18.2452 16.2613V1.09705C18.2452 0.826829 18.4285 0.599536 18.6771 0.532226H18.9833C19.232 0.599536 19.4153 0.826829 19.4153 1.09705V16.5774ZM31.257 18.7645C30.591 17.7841 29.7348 16.9276 28.7548 16.2613V1.09705C28.7548 0.826829 28.5715 0.599536 28.3229 0.532226H28.0167C27.768 0.599536 27.5847 0.826829 27.5847 1.09705V16.5774C27.5847 16.7783 27.6881 16.9656 27.8577 17.0729C28.8972 17.7265 29.7914 18.6211 30.4457 19.661C30.552 19.8307 30.7392 19.9351 30.941 19.9351H46.4149C46.7377 19.9351 47 19.6727 47 19.3498C47 19.0259 46.7377 18.7645 46.4149 18.7645H31.257ZM32.4602 5.7668C31.2745 5.49952 30.3852 4.43816 30.3852 3.17195C30.3852 1.81599 31.4042 0.69416 32.7157 0.53125H33.3729C34.6844 0.69416 35.7034 1.81599 35.7034 3.17195C35.7034 4.43719 34.8151 5.49952 33.6294 5.7668V13.8869H41.7461C42.0133 12.7007 43.0742 11.8111 44.3399 11.8111C45.8065 11.8111 46.999 13.0051 46.999 14.4722C46.999 15.9394 45.8065 17.1325 44.3399 17.1325C43.0742 17.1325 42.0133 16.2438 41.7461 15.0575H33.2696C33.1126 15.0575 32.9614 14.9941 32.8512 14.882C32.7801 14.8088 32.7089 14.7376 32.6357 14.6664C32.5236 14.5561 32.4602 14.4049 32.4602 14.2479V5.7668Z" fill="#E84600"/>
</svg>
