<svg width="26" height="24" viewBox="0 0 26 24" fill="none" xmlns="http://www.w3.org/2000/svg">
<path d="M19.009 0.770508C22.5816 0.770508 25.3839 3.57852 25.384 7.16406C25.384 9.36919 24.3993 11.409 22.5667 13.6572C20.7283 15.9124 18.089 18.316 14.8606 21.2578L13.385 22.5947L11.9084 21.2471L11.9075 21.2461L9.59985 19.1387C7.40917 17.1193 5.5802 15.3456 4.20142 13.6553C2.3689 11.4087 1.38403 9.36915 1.38403 7.16406C1.38413 3.57852 4.18652 0.770508 7.75903 0.770508C9.78213 0.770508 11.7323 1.71739 13.0032 3.21387L13.384 3.66211L13.7649 3.21387C15.0358 1.71739 16.9859 0.770508 19.009 0.770508Z" stroke="#E84600"/>
</svg>
