<svg width="40" height="45" viewBox="0 0 40 45" fill="none" xmlns="http://www.w3.org/2000/svg">
<path d="M29.0684 10.0166C27.6409 8.72959 25.955 7.76239 24.1235 7.17977C22.292 6.59715 20.3571 6.41256 18.4485 6.63835C15.5676 6.96738 12.8675 8.20904 10.7425 10.1819C8.61761 12.1548 7.17927 14.7555 6.63767 17.6041C6.09607 20.4526 6.47959 23.3997 7.73219 26.0148C8.98479 28.6299 11.0408 30.7758 13.5999 32.1392V40.1535C13.6003 40.5777 13.7691 40.9844 14.069 41.2844C14.369 41.5844 14.7757 41.7531 15.2 41.7535H16.8V43.3536C16.8004 43.7778 16.9691 44.1845 17.2691 44.4845C17.5691 44.7845 17.9758 44.9532 18.4001 44.9536H21.6001C22.0244 44.9532 22.4311 44.7845 22.7311 44.4845C23.0311 44.1845 23.1998 43.7778 23.2002 43.3536V41.7535H24.8002C25.2245 41.7531 25.6312 41.5844 25.9312 41.2844C26.2311 40.9844 26.3999 40.5777 26.4003 40.1535V32.1396C28.3312 31.1112 29.9852 29.6317 31.2218 27.827C32.4583 26.0223 33.2408 23.9457 33.5028 21.7738C33.7647 19.6018 33.4984 17.3987 32.7263 15.3518C31.9543 13.3048 30.6994 11.4746 29.0684 10.0166ZM24.8002 35.3533V36.9534H15.2V35.3533H24.8002ZM21.6013 43.3536H18.4001V41.7535H21.6005L21.6013 43.3536ZM22.4002 40.1535H15.2V38.5534H24.8002V40.1535H22.4002ZM25.2494 30.931C25.1147 30.9966 25.0011 31.0988 24.9217 31.2259C24.8423 31.353 24.8002 31.4998 24.8002 31.6497V33.7533H20.8001V30.0845L22.9658 27.9187C23.1115 27.7678 23.1922 27.5657 23.1903 27.356C23.1885 27.1462 23.1044 26.9456 22.956 26.7972C22.8077 26.6489 22.6071 26.5648 22.3973 26.5629C22.1875 26.5611 21.9854 26.6418 21.8346 26.7875L20.0001 28.6219L18.1656 26.7875C18.0148 26.6418 17.8127 26.5611 17.6029 26.5629C17.3931 26.5648 17.1925 26.6489 17.0442 26.7972C16.8958 26.9456 16.8117 27.1462 16.8099 27.356C16.808 27.5657 16.8887 27.7678 17.0344 27.9187L19.2001 30.0845V33.7533H15.2V31.6497C15.2 31.4998 15.1579 31.353 15.0785 31.2259C14.999 31.0988 14.8855 30.9966 14.7507 30.931C12.4154 29.7967 10.5111 27.9353 9.32416 25.6262C8.13721 23.3172 7.73164 20.6853 8.16841 18.1261C8.60518 15.5668 9.86068 13.2184 11.7463 11.4338C13.6319 9.64912 16.0457 8.52457 18.6251 8.22912C19.0871 8.17751 19.5516 8.15155 20.0165 8.15136C22.9655 8.14255 25.8121 9.2325 28.0011 11.2086C29.4685 12.5201 30.5904 14.1727 31.2679 16.0205C31.9453 17.8683 32.1574 19.8544 31.8854 21.8036C31.6135 23.7528 30.8658 25.605 29.7085 27.1968C28.5512 28.7886 27.0198 30.0712 25.2494 30.931Z" fill="#E84600"/>
<path d="M20.0022 4.95248C20.2144 4.95248 20.4178 4.86819 20.5679 4.71816C20.7179 4.56813 20.8022 4.36464 20.8022 4.15246V0.952367C20.8022 0.740187 20.7179 0.536699 20.5679 0.386665C20.4178 0.236632 20.2144 0.152344 20.0022 0.152344C19.79 0.152344 19.5865 0.236632 19.4365 0.386665C19.2864 0.536699 19.2021 0.740187 19.2021 0.952367V4.15246C19.2021 4.36464 19.2864 4.56813 19.4365 4.71816C19.5865 4.86819 19.79 4.95248 20.0022 4.95248Z" fill="#E84600"/>
<path d="M8.11949 9.40404C8.19329 9.48045 8.28156 9.5414 8.37917 9.58333C8.47678 9.62525 8.58175 9.64732 8.68798 9.64825C8.79421 9.64917 8.89955 9.62893 8.99787 9.5887C9.09619 9.54848 9.18552 9.48907 9.26064 9.41396C9.33575 9.33884 9.39515 9.24951 9.43538 9.15119C9.47561 9.05287 9.49585 8.94753 9.49493 8.8413C9.494 8.73508 9.47193 8.6301 9.43 8.53249C9.38808 8.43488 9.32713 8.34661 9.25072 8.27281L6.98777 6.00986C6.91398 5.93345 6.8257 5.8725 6.72809 5.83058C6.63048 5.78865 6.52551 5.76658 6.41928 5.76566C6.31305 5.76473 6.20771 5.78497 6.10939 5.8252C6.01107 5.86543 5.92174 5.92483 5.84663 5.99995C5.77151 6.07506 5.71211 6.16439 5.67188 6.26271C5.63165 6.36103 5.61141 6.46637 5.61233 6.5726C5.61326 6.67883 5.63533 6.7838 5.67726 6.88141C5.71918 6.97902 5.78013 7.0673 5.85654 7.14109L8.11949 9.40404Z" fill="#E84600"/>
<path d="M4.00011 19.3525H0.800023C0.587844 19.3525 0.384355 19.4368 0.234321 19.5869C0.084288 19.7369 0 19.9404 0 20.1526C0 20.3647 0.084288 20.5682 0.234321 20.7183C0.384355 20.8683 0.587844 20.9526 0.800023 20.9526H4.00011C4.21229 20.9526 4.41578 20.8683 4.56582 20.7183C4.71585 20.5682 4.80014 20.3647 4.80014 20.1526C4.80014 19.9404 4.71585 19.7369 4.56582 19.5869C4.41578 19.4368 4.21229 19.3525 4.00011 19.3525Z" fill="#E84600"/>
<path d="M8.11949 30.9013L5.85654 33.1643C5.78013 33.2381 5.71918 33.3264 5.67726 33.424C5.63533 33.5216 5.61326 33.6265 5.61233 33.7328C5.61141 33.839 5.63165 33.9443 5.67188 34.0427C5.71211 34.141 5.77151 34.2303 5.84663 34.3054C5.92174 34.3805 6.01107 34.4399 6.10939 34.4802C6.20771 34.5204 6.31305 34.5406 6.41928 34.5397C6.52551 34.5388 6.63048 34.5167 6.72809 34.4748C6.8257 34.4329 6.91398 34.3719 6.98777 34.2955L9.25072 32.0326C9.39645 31.8817 9.47709 31.6796 9.47526 31.4698C9.47344 31.2601 9.3893 31.0594 9.24097 30.9111C9.09264 30.7627 8.89199 30.6786 8.68222 30.6768C8.47246 30.675 8.27037 30.7556 8.11949 30.9013Z" fill="#E84600"/>
<path d="M33.013 6.00986L30.7501 8.27281C30.6737 8.34661 30.6127 8.43488 30.5708 8.53249C30.5289 8.6301 30.5068 8.73508 30.5059 8.8413C30.505 8.94753 30.5252 9.05287 30.5654 9.15119C30.6057 9.24951 30.6651 9.33884 30.7402 9.41396C30.8153 9.48907 30.9046 9.54848 31.0029 9.5887C31.1013 9.62893 31.2066 9.64917 31.3128 9.64825C31.4191 9.64732 31.524 9.62525 31.6216 9.58333C31.7193 9.5414 31.8075 9.48045 31.8813 9.40404L34.1443 7.14109C34.2207 7.0673 34.2816 6.97902 34.3236 6.88141C34.3655 6.7838 34.3876 6.67883 34.3885 6.5726C34.3894 6.46637 34.3692 6.36103 34.3289 6.26271C34.2887 6.16439 34.2293 6.07506 34.1542 5.99995C34.0791 5.92483 33.9897 5.86543 33.8914 5.8252C33.7931 5.78497 33.6878 5.76473 33.5815 5.76566C33.4753 5.76658 33.3703 5.78865 33.2727 5.83058C33.1751 5.8725 33.0868 5.93345 33.013 6.00986Z" fill="#E84600"/>
<path d="M31.8807 30.9013C31.7298 30.7556 31.5277 30.675 31.318 30.6768C31.1082 30.6786 30.9076 30.7627 30.7592 30.9111C30.6109 31.0594 30.5268 31.2601 30.5249 31.4698C30.5231 31.6796 30.6037 31.8817 30.7495 32.0326L33.0124 34.2955C33.1633 34.4412 33.3654 34.5219 33.5752 34.5201C33.7849 34.5182 33.9856 34.4341 34.1339 34.2858C34.2822 34.1374 34.3664 33.9368 34.3682 33.727C34.37 33.5173 34.2894 33.3152 34.1437 33.1643L31.8807 30.9013Z" fill="#E84600"/>
<path d="M39.1998 19.3525H35.9997C35.7876 19.3525 35.5841 19.4368 35.434 19.5869C35.284 19.7369 35.1997 19.9404 35.1997 20.1526C35.1997 20.3647 35.284 20.5682 35.434 20.7183C35.5841 20.8683 35.7876 20.9526 35.9997 20.9526H39.1998C39.412 20.9526 39.6155 20.8683 39.7655 20.7183C39.9156 20.5682 39.9998 20.3647 39.9998 20.1526C39.9998 19.9404 39.9156 19.7369 39.7655 19.5869C39.6155 19.4368 39.412 19.3525 39.1998 19.3525Z" fill="#E84600"/>
</svg>
