<svg width="13" height="14" viewBox="0 0 13 14" fill="none" xmlns="http://www.w3.org/2000/svg">
<path d="M6.19358 2.0769C7.83266 2.0769 8.02706 2.0834 8.67471 2.11482C10.3384 2.19498 11.1154 3.03077 11.1911 4.77927C11.2208 5.46448 11.2264 5.67032 11.2264 7.40582C11.2264 9.14186 11.2203 9.34715 11.1911 10.0324C11.1149 11.7792 10.3399 12.6166 8.67471 12.6968C8.02706 12.7282 7.83368 12.7347 6.19358 12.7347C4.55449 12.7347 4.3601 12.7282 3.71295 12.6968C2.04522 12.6161 1.27223 11.7765 1.19652 10.0318C1.16685 9.34661 1.16071 9.14132 1.16071 7.40527C1.16071 5.66977 1.16736 5.46448 1.19652 4.77873C1.27275 3.03077 2.04778 2.19444 3.71295 2.11427C4.36061 2.0834 4.55449 2.0769 6.19358 2.0769ZM6.19358 0.905273C4.52636 0.905273 4.31763 0.912857 3.66282 0.944273C1.43338 1.05261 0.194347 2.36236 0.0920324 4.72511C0.0618495 5.41898 0.0546875 5.63998 0.0546875 7.40527C0.0546875 9.17057 0.0618495 9.39211 0.0915208 10.0854C0.193836 12.446 1.43082 13.7579 3.66231 13.8663C4.31763 13.8977 4.52636 13.9053 6.19358 13.9053C7.8608 13.9053 8.07003 13.8977 8.72484 13.8663C10.9522 13.7579 12.1943 12.4482 12.2951 10.0854C12.3253 9.39211 12.3325 9.17057 12.3325 7.40527C12.3325 5.63998 12.3253 5.41898 12.2956 4.72565C12.1954 2.36723 10.9568 1.05315 8.72536 0.944815C8.07003 0.912857 7.8608 0.905273 6.19358 0.905273ZM6.19358 4.06752C4.45269 4.06752 3.04126 5.56198 3.04126 7.40527C3.04126 9.24857 4.45269 10.7436 6.19358 10.7436C7.93446 10.7436 9.3459 9.24911 9.3459 7.40527C9.3459 5.56198 7.93446 4.06752 6.19358 4.06752ZM6.19358 9.57194C5.06351 9.57194 4.14728 8.60236 4.14728 7.40527C4.14728 6.20873 5.06351 5.23861 6.19358 5.23861C7.32364 5.23861 8.23987 6.20873 8.23987 7.40527C8.23987 8.60236 7.32364 9.57194 6.19358 9.57194ZM9.47072 3.1559C9.06351 3.1559 8.73354 3.50527 8.73354 3.9359C8.73354 4.36652 9.06351 4.7159 9.47072 4.7159C9.87742 4.7159 10.2069 4.36652 10.2069 3.9359C10.2069 3.50527 9.87742 3.1559 9.47072 3.1559Z" fill="white"/>
</svg>
