<svg width="14" height="14" viewBox="0 0 14 14" fill="none" xmlns="http://www.w3.org/2000/svg">
<path d="M11.4075 11.9834H9.48241V8.9669C9.48241 8.24757 9.46778 7.32186 8.47924 7.32186C7.47553 7.32186 7.32224 8.10457 7.32224 8.91382V11.9834H5.39716V5.78027H7.24641V6.62582H7.27132C7.5297 6.13832 8.15803 5.62373 9.09674 5.62373C11.0473 5.62373 11.408 6.90748 11.408 8.57852L11.4075 11.9834ZM3.22291 4.93148C2.60324 4.93148 2.10545 4.4299 2.10545 3.81294C2.10545 3.19652 2.60378 2.69548 3.22291 2.69548C3.84041 2.69548 4.34091 3.19652 4.34091 3.81294C4.34091 4.4299 3.83986 4.93148 3.22291 4.93148ZM4.18816 11.9834H2.25766V5.78027H4.18816V11.9834ZM12.3706 0.905273H1.29132C0.761031 0.905273 0.332031 1.32452 0.332031 1.84182V12.9687C0.332031 13.4866 0.761031 13.9053 1.29132 13.9053H12.3689C12.8987 13.9053 13.332 13.4866 13.332 12.9687V1.84182C13.332 1.32452 12.8987 0.905273 12.3689 0.905273H12.3706Z" fill="white"/>
</svg>
