<svg width="12" height="19" viewBox="0 0 12 19" fill="none" xmlns="http://www.w3.org/2000/svg">
<path d="M6 9.28828C5.43168 9.28828 4.88663 9.05123 4.48477 8.62927C4.08291 8.20731 3.85714 7.63502 3.85714 7.03828C3.85714 6.44154 4.08291 5.86925 4.48477 5.44729C4.88663 5.02533 5.43168 4.78828 6 4.78828C6.56832 4.78828 7.11337 5.02533 7.51523 5.44729C7.91709 5.86925 8.14286 6.44154 8.14286 7.03828C8.14286 7.33376 8.08743 7.62634 7.97974 7.89932C7.87205 8.1723 7.71421 8.42034 7.51523 8.62927C7.31625 8.8382 7.08002 9.00394 6.82004 9.11701C6.56005 9.23008 6.2814 9.28828 6 9.28828ZM6 0.738281C4.4087 0.738281 2.88258 1.40203 1.75736 2.58351C0.632141 3.76499 0 5.36742 0 7.03828C0 11.7633 6 18.7383 6 18.7383C6 18.7383 12 11.7633 12 7.03828C12 5.36742 11.3679 3.76499 10.2426 2.58351C9.11742 1.40203 7.5913 0.738281 6 0.738281Z" fill="white"/>
</svg>
