<svg width="12" height="14" viewBox="0 0 12 14" fill="none" xmlns="http://www.w3.org/2000/svg">
<path d="M5.90035 12.8285C5.7947 12.907 5.66791 12.9493 5.53784 12.9493C5.40777 12.9493 5.28098 12.907 5.17533 12.8285C2.04934 10.5213 -1.26826 5.77562 2.08559 2.34638C3.00633 1.40853 4.2463 0.883202 5.53784 0.88379C6.83252 0.88379 8.07476 1.40997 8.99009 2.34571C12.3439 5.77495 9.02634 10.52 5.90035 12.8285Z" stroke="white" stroke-width="1.29464" stroke-linecap="round" stroke-linejoin="round"/>
<path d="M5.53872 6.91654C5.88209 6.91654 6.2114 6.7753 6.4542 6.52389C6.697 6.27248 6.8334 5.93149 6.8334 5.57595C6.8334 5.2204 6.697 4.87941 6.4542 4.628C6.2114 4.37659 5.88209 4.23535 5.53872 4.23535C5.19535 4.23535 4.86605 4.37659 4.62325 4.628C4.38045 4.87941 4.24405 5.2204 4.24405 5.57595C4.24405 5.93149 4.38045 6.27248 4.62325 6.52389C4.86605 6.7753 5.19535 6.91654 5.53872 6.91654Z" stroke="white" stroke-width="1.29464" stroke-linecap="round" stroke-linejoin="round"/>
</svg>
