<svg width="12" height="15" viewBox="0 0 12 15" fill="none" xmlns="http://www.w3.org/2000/svg">
<path d="M6.37334 13.5888C6.26454 13.6697 6.13396 13.7133 6 13.7133C5.86604 13.7133 5.73546 13.6697 5.62666 13.5888C2.40723 11.2127 -1.00954 6.32515 2.44456 2.79341C3.39282 1.82754 4.66985 1.2865 6 1.28711C7.33337 1.28711 8.61274 1.82902 9.55544 2.79272C13.0095 6.32446 9.59277 11.2113 6.37334 13.5888Z" stroke="#FF5938" stroke-width="1.25" stroke-linecap="round" stroke-linejoin="round"/>
<path d="M6.00293 7.5001C6.35656 7.5001 6.69571 7.35463 6.94576 7.09571C7.19582 6.83678 7.3363 6.48561 7.3363 6.11943C7.3363 5.75326 7.19582 5.40208 6.94576 5.14316C6.69571 4.88423 6.35656 4.73877 6.00293 4.73877C5.6493 4.73877 5.31015 4.88423 5.06009 5.14316C4.81004 5.40208 4.66956 5.75326 4.66956 6.11943C4.66956 6.48561 4.81004 6.83678 5.06009 7.09571C5.31015 7.35463 5.6493 7.5001 6.00293 7.5001Z" stroke="#FF5938" stroke-width="1.25" stroke-linecap="round" stroke-linejoin="round"/>
</svg>
