<svg width="16" height="13" viewBox="0 0 16 13" fill="none" xmlns="http://www.w3.org/2000/svg">
<path fill-rule="evenodd" clip-rule="evenodd" d="M0.8 0.738281H15.2C15.4122 0.738281 15.6157 0.817299 15.7657 0.957951C15.9157 1.0986 16 1.28937 16 1.48828V11.9883C16 12.1872 15.9157 12.378 15.7657 12.5186C15.6157 12.6593 15.4122 12.7383 15.2 12.7383H0.8C0.587827 12.7383 0.384344 12.6593 0.234315 12.5186C0.0842854 12.378 0 12.1872 0 11.9883V1.48828C0 1.28937 0.0842854 1.0986 0.234315 0.957951C0.384344 0.817299 0.587827 0.738281 0.8 0.738281ZM13.6248 2.17378L8.1248 6.29878C8.08936 6.32531 8.04535 6.33976 8 6.33976C7.95465 6.33976 7.91064 6.32531 7.8752 6.29878L2.3752 2.17378L1.6248 3.05278L7.1256 7.17778C7.37381 7.36388 7.68218 7.46526 8 7.46526C8.31782 7.46526 8.62619 7.36388 8.8744 7.17778L14.3752 3.05278L13.6248 2.17378Z" fill="white"/>
</svg>
