<svg width="24" height="15" viewBox="0 0 24 15" fill="none" xmlns="http://www.w3.org/2000/svg">
<path d="M2 15C1.64584 15 1.34917 14.88 1.11 14.64C0.870838 14.4 0.750838 14.1033 0.750004 13.75C0.749171 13.3967 0.869171 13.1 1.11 12.86C1.35084 12.62 1.6475 12.5 2 12.5H22C22.3542 12.5 22.6513 12.62 22.8913 12.86C23.1313 13.1 23.2508 13.3967 23.25 13.75C23.2492 14.1033 23.1292 14.4004 22.89 14.6412C22.6508 14.8821 22.3542 15.0017 22 15H2ZM2 8.75C1.64584 8.75 1.34917 8.63 1.11 8.39C0.870838 8.15 0.750838 7.85333 0.750004 7.5C0.749171 7.14667 0.869171 6.85 1.11 6.61C1.35084 6.37 1.6475 6.25 2 6.25H22C22.3542 6.25 22.6513 6.37 22.8913 6.61C23.1313 6.85 23.2508 7.14667 23.25 7.5C23.2492 7.85333 23.1292 8.15042 22.89 8.39125C22.6508 8.63208 22.3542 8.75167 22 8.75H2ZM2 2.5C1.64584 2.5 1.34917 2.38 1.11 2.14C0.870838 1.9 0.750838 1.60333 0.750004 1.25C0.749171 0.896667 0.869171 0.6 1.11 0.36C1.35084 0.12 1.6475 0 2 0H22C22.3542 0 22.6513 0.12 22.8913 0.36C23.1313 0.6 23.2508 0.896667 23.25 1.25C23.2492 1.60333 23.1292 1.90042 22.89 2.14125C22.6508 2.38208 22.3542 2.50167 22 2.5H2Z" fill="white"/>
</svg>
