<svg width="40" height="40" viewBox="0 0 40 40" fill="none" xmlns="http://www.w3.org/2000/svg">
<path d="M19.2049 7.64354C19.2962 7.88382 19.3996 8.1076 19.5174 8.31448C19.9756 9.11997 20.6369 9.66466 21.4896 9.94726L21.3079 11.901H20.6551C19.7019 11.901 18.9265 12.6873 18.9265 13.6536V14.843C18.9265 15.154 19.1752 15.4062 19.482 15.4062H26.5458C26.8527 15.4062 27.1014 15.154 27.1014 14.843V13.6536C27.1014 12.6872 26.326 11.901 25.3729 11.901H24.72L24.5383 9.94735C25.391 9.66474 26.0523 9.12013 26.5106 8.31456C26.6283 8.1076 26.7318 7.8839 26.8231 7.64362C28.1775 7.48107 29.2316 6.3105 29.2316 4.89426V2.53123C29.2316 1.95693 28.7708 1.48981 28.2044 1.48981H27.7383C27.8107 1.2171 27.8705 0.819345 27.6396 0.499886C27.525 0.341283 27.3011 0.152344 26.8858 0.152344H19.1421C18.7267 0.152344 18.5029 0.341364 18.3883 0.499886C18.1574 0.819345 18.2172 1.21718 18.2896 1.48981H17.8235C17.2571 1.48981 16.7963 1.95701 16.7963 2.53123V4.89426C16.7963 6.3105 17.8505 7.48099 19.2049 7.64354ZM25.9903 13.6536V14.2797H20.0376V13.6536C20.0376 13.3084 20.3146 13.0276 20.6551 13.0276H25.3729C25.7134 13.0276 25.9903 13.3084 25.9903 13.6536ZM23.6039 11.901H22.4239L22.586 10.158C22.7254 10.1683 22.8672 10.1752 23.0139 10.1752C23.1605 10.1752 23.3024 10.1683 23.4417 10.158L23.6038 11.901H23.6039ZM28.1204 4.89426C28.1204 5.56416 27.7223 6.14071 27.1539 6.39612C27.2642 5.75857 27.3184 5.02888 27.3188 4.1867C27.3227 4.07469 27.326 3.97105 27.329 3.8744C27.3474 3.29383 27.3572 2.98628 27.4293 2.61628H28.1204V4.89426ZM26.6415 1.27882C26.6373 1.2929 26.6328 1.30763 26.628 1.32332C26.2609 2.50194 26.2511 2.81174 26.2185 3.83819C26.2153 3.93677 26.2119 4.04258 26.2081 4.15725C26.2078 4.16377 26.2077 4.17029 26.2077 4.1768C26.2077 5.8021 25.9919 6.97147 25.5481 7.75169C25.0446 8.6366 24.2394 9.04876 23.0139 9.04876C21.7885 9.04876 20.9832 8.6366 20.4798 7.75169C20.036 6.97155 19.8202 5.8021 19.8202 4.1768C19.8202 4.17029 19.8201 4.16377 19.8199 4.15725C19.816 4.0425 19.8126 3.93669 19.8095 3.83811C19.7769 2.81174 19.767 2.50202 19.3999 1.32324C19.3951 1.30771 19.3905 1.29282 19.3864 1.27882H26.6415ZM17.9074 2.61628H18.5986C18.6707 2.9862 18.6805 3.29375 18.699 3.87432C18.702 3.97105 18.7053 4.07469 18.7091 4.1867C18.7095 5.02888 18.7637 5.75857 18.874 6.39612C18.3055 6.14071 17.9074 5.56416 17.9074 4.89426V2.61628ZM33.6522 24.5021C32.1749 25.3668 28.5145 27.177 25.7563 28.2425C25.8548 27.7269 25.7651 27.1888 25.4861 26.7127C25.0761 26.0131 24.355 25.6096 23.5563 25.639C20.1417 25.6373 17.9318 24.7077 15.9816 23.8874C14.204 23.1397 12.6688 22.4942 10.8499 22.9404C9.01755 23.3901 7.06835 24.9273 4.55526 27.9106C3.90114 27.5986 3.09622 27.7142 2.55638 28.2616L0.162738 30.6886C-0.0542459 30.9085 -0.0542459 31.2652 0.162738 31.4852L7.56208 38.9874C7.67057 39.0973 7.81272 39.1523 7.95494 39.1523C8.09716 39.1523 8.2393 39.0973 8.34779 38.9874L10.7414 36.5604C11.0737 36.2235 11.2566 35.7744 11.2566 35.2958C11.2566 35.0794 11.2173 34.8697 11.1456 34.673C12.6663 34.0319 14.3628 33.9768 16.5293 34.1083C17.0184 34.138 17.5319 34.18 18.0756 34.2243C19.3661 34.3297 20.7007 34.4388 21.9905 34.4098C24.703 34.349 26.3348 33.577 28.5147 32.4062C30.7353 31.2137 35.4715 28.365 36.3576 27.1841C36.9885 26.3432 37.0241 25.3716 36.4485 24.7088C35.92 24.1004 34.8506 23.8005 33.6523 24.502L33.6522 24.5021ZM9.9558 35.764L7.95502 37.7927L1.34123 31.087L3.34201 29.0583C3.59646 28.8003 4.01058 28.8003 4.26503 29.0583L9.95572 34.8281C10.078 34.9521 10.1454 35.1182 10.1454 35.296C10.1454 35.4737 10.078 35.6399 9.95572 35.7639L9.9558 35.764ZM35.4733 26.5022C34.8521 27.3299 30.8741 29.8644 27.9946 31.4109C25.9551 32.5063 24.4337 33.2285 21.966 33.2837C20.7333 33.3114 19.4274 33.2048 18.1648 33.1016C17.6153 33.0566 17.0962 33.0143 16.5956 32.984C14.6656 32.8667 12.459 32.8251 10.4614 33.7474L5.41209 28.6279C10.3679 22.7465 12.2248 23.527 15.5559 24.928C17.5023 25.7467 19.9247 26.7655 23.566 26.7655C23.573 26.7655 23.58 26.7654 23.587 26.7651C23.9772 26.7498 24.3302 26.9457 24.5309 27.2882C24.7316 27.6307 24.7323 28.0383 24.5327 28.3788C24.1663 29.004 22.8337 29.3276 20.9674 29.2453C19.2138 29.1677 17.4497 28.7435 16.7573 28.3781C16.4851 28.2342 16.1497 28.3417 16.008 28.6178C15.8663 28.8937 15.9721 29.2338 16.2444 29.3774C17.1871 29.8749 19.1531 30.2927 20.9189 30.3708C21.1159 30.3795 21.3194 30.3846 21.5269 30.3846C22.4675 30.3846 23.4829 30.2797 24.2851 29.9377C27.0777 29.1397 32.2879 26.6016 34.2078 25.4779C34.8581 25.0972 35.3929 25.1983 35.6146 25.4535C35.8314 25.7032 35.7786 26.0952 35.4733 26.5022ZM33.9571 8.02584C30.625 8.02584 27.9142 10.7743 27.9142 14.1528C27.9142 17.5312 30.625 20.2798 33.9571 20.2798C37.2891 20.2798 40 17.5312 40 14.1528C40 10.7743 37.2891 8.02584 33.9571 8.02584ZM33.9571 19.1532C31.2376 19.1532 29.0253 16.9099 29.0253 14.1527C29.0253 11.3955 31.2376 9.15232 33.9571 9.15232C36.6765 9.15232 38.8889 11.3955 38.8889 14.1527C38.8889 16.9099 36.6765 19.1532 33.9571 19.1532ZM36.1309 15.6007C36.0575 16.1232 35.7275 16.5795 35.248 16.8214C35.0287 16.9321 34.7777 17.0081 34.5126 17.0496V17.4991C34.5126 17.8102 34.2639 18.0624 33.9571 18.0624C33.6503 18.0624 33.4015 17.8102 33.4015 17.4991V17.0265C32.7375 16.8981 32.1303 16.5626 31.8363 16.0179C31.689 15.7449 31.7877 15.4026 32.0568 15.2533C32.326 15.1041 32.6636 15.2041 32.8109 15.4769C33.0509 15.9215 34.1582 16.1131 34.7531 15.8128C34.9075 15.7349 35.0087 15.5998 35.0309 15.4419C35.0414 15.3669 35.0406 15.2237 34.9165 15.1078C34.8183 15.016 34.6143 14.8816 34.2003 14.7622C34.0821 14.7281 33.9504 14.6966 33.8111 14.6632C33.3475 14.552 32.8222 14.426 32.4299 14.1174C32.0593 13.8258 31.8382 13.4294 31.8073 13.0012C31.7772 12.5821 31.9288 12.1737 32.2342 11.851C32.511 11.5587 32.9285 11.3576 33.4016 11.2698V10.8067C33.4016 10.4956 33.6503 10.2434 33.9572 10.2434C34.264 10.2434 34.5127 10.4956 34.5127 10.8067V11.2728C35.1904 11.4001 35.7204 11.745 35.9795 12.2328C36.125 12.5066 36.0241 12.8483 35.7539 12.9958C35.4837 13.1435 35.1468 13.041 35.0014 12.7671C34.8976 12.5717 34.5975 12.4177 34.2182 12.3654C33.741 12.2992 33.2438 12.4112 33.0357 12.6311C32.9512 12.7204 32.9085 12.8226 32.9154 12.919C32.9252 13.0544 33.0272 13.1614 33.111 13.2273C33.3126 13.386 33.7133 13.4821 34.0668 13.5669C34.2119 13.6017 34.3621 13.6377 34.5041 13.6787C35.0053 13.8232 35.3975 14.0253 35.6695 14.2794C36.0329 14.6191 36.2011 15.1007 36.1309 15.6009V15.6007ZM12.0709 20.2797C15.4029 20.2797 18.1138 17.5312 18.1138 14.1527C18.1138 10.7742 15.4029 8.02576 12.0709 8.02576C8.73882 8.02576 6.02796 10.7742 6.02796 14.1527C6.02796 17.5312 8.73882 20.2797 12.0709 20.2797ZM12.0709 9.1524C14.7903 9.1524 17.0027 11.3955 17.0027 14.1528C17.0027 16.91 14.7903 19.1532 12.0709 19.1532C9.35144 19.1532 7.13907 16.91 7.13907 14.1528C7.13907 11.3955 9.35144 9.1524 12.0709 9.1524ZM9.59477 16.7053C9.5543 16.9197 9.63961 17.1386 9.8139 17.2669C9.91072 17.3383 10.0254 17.3745 10.1405 17.3745C10.2324 17.3745 10.3246 17.3514 10.4083 17.3046L12.0709 16.3767L13.7334 17.3046C13.922 17.41 14.1536 17.3952 14.3279 17.2669C14.5021 17.1386 14.5875 16.9198 14.547 16.7053L14.1902 14.8154L15.5744 13.4991C15.7315 13.3498 15.7893 13.1218 15.7228 12.9141C15.6563 12.7064 15.4774 12.5565 15.2637 12.5293L13.3807 12.2894L12.5737 10.5478C12.4822 10.3502 12.2863 10.2241 12.071 10.2241C11.8556 10.2241 11.6597 10.3503 11.5682 10.5478L10.7612 12.2894L8.87819 12.5293C8.66454 12.5565 8.48565 12.7065 8.41914 12.9141C8.35263 13.1217 8.41041 13.3497 8.56747 13.4991L9.95168 14.8154L9.59493 16.7053H9.59477ZM11.2031 13.3684C11.3921 13.3443 11.5556 13.2238 11.6366 13.049L12.0709 12.1119L12.5051 13.049C12.586 13.2238 12.7497 13.3443 12.9386 13.3684L13.9518 13.4974L13.207 14.2058C13.0681 14.3379 13.0056 14.5328 13.0414 14.7225L13.2333 15.7395L12.3388 15.2401C12.172 15.147 11.9698 15.147 11.8029 15.2401L10.9083 15.7395L11.1002 14.7225C11.136 14.5329 11.0736 14.3379 10.9347 14.2058L10.1899 13.4974L11.2031 13.3684ZM23.0632 18.0853C23.37 18.0853 23.6188 18.3375 23.6188 18.6486V22.707C23.6188 23.0181 23.37 23.2703 23.0632 23.2703C22.7564 23.2703 22.5077 23.0181 22.5077 22.707V18.6486C22.5077 18.3375 22.7564 18.0853 23.0632 18.0853ZM24.8689 22.5346L27.6993 19.6649C27.9162 19.4449 28.2681 19.445 28.485 19.6649C28.7019 19.8849 28.7019 20.2416 28.485 20.4615L25.6546 23.3313C25.5461 23.4412 25.4039 23.4963 25.2617 23.4963C25.1195 23.4963 24.9773 23.4412 24.8689 23.3313C24.6519 23.1113 24.6519 22.7547 24.8689 22.5347L24.8689 22.5346ZM18.4271 19.6649L21.2575 22.5346C21.4745 22.7546 21.4745 23.1112 21.2575 23.3312C21.149 23.4412 21.0069 23.4962 20.8647 23.4962C20.7224 23.4962 20.5803 23.4412 20.4718 23.3312L17.6414 20.4615C17.4244 20.2415 17.4244 19.8849 17.6414 19.6649C17.8583 19.445 18.2101 19.445 18.427 19.6649H18.4271Z" fill="#E84600"/>
</svg>
