<svg width="12" height="13" viewBox="0 0 12 13" fill="none" xmlns="http://www.w3.org/2000/svg">
<path d="M12 9.68495V12.0423C12.0001 12.2111 11.9361 12.3736 11.8211 12.4971C11.706 12.6206 11.5484 12.6958 11.38 12.7076C11.0889 12.7281 10.8511 12.7383 10.6667 12.7383C4.77533 12.7383 0 7.96295 0 2.07161C0 1.88761 0.0102222 1.64984 0.0306667 1.35828C0.0424816 1.18991 0.117721 1.03229 0.241202 0.91722C0.364684 0.802152 0.527215 0.738205 0.696 0.738281H3.05333C3.13603 0.738198 3.2158 0.768854 3.27715 0.824295C3.33851 0.879736 3.37706 0.956003 3.38533 1.03828C3.40044 1.19117 3.41467 1.31384 3.428 1.40628C3.56048 2.3309 3.83199 3.23017 4.23333 4.07362C4.29667 4.20695 4.25533 4.36628 4.13533 4.45161L2.69667 5.47962C3.57647 7.52913 5.20982 9.16247 7.25933 10.0423L8.286 8.60628C8.32779 8.5474 8.38902 8.50516 8.4589 8.48699C8.52877 8.46882 8.60282 8.47589 8.668 8.50695C9.51134 8.90753 10.4104 9.17837 11.3347 9.31028C11.4271 9.32362 11.5493 9.33784 11.7013 9.35295C11.7835 9.36137 11.8596 9.4 11.9149 9.46133C11.9702 9.52267 12.0001 9.60236 12 9.68495Z" fill="white"/>
</svg>
