<svg width="25" height="25" viewBox="0 0 25 25" fill="none" xmlns="http://www.w3.org/2000/svg">
<path d="M9.2027 24.3425C10.3547 24.6905 11.5187 24.8945 12.7547 24.8945C15.9373 24.8945 18.9895 23.6303 21.24 21.3798C23.4904 19.1294 24.7547 16.0771 24.7547 12.8945C24.7547 11.3187 24.4443 9.75824 23.8413 8.30233C23.2382 6.84642 22.3543 5.52355 21.24 4.40925C20.1257 3.29495 18.8028 2.41103 17.3469 1.80798C15.891 1.20492 14.3306 0.894531 12.7547 0.894531C11.1788 0.894531 9.61841 1.20492 8.1625 1.80798C6.70659 2.41103 5.38372 3.29495 4.26942 4.40925C2.01898 6.65969 0.7547 9.71193 0.7547 12.8945C0.7547 17.9945 3.9587 22.3745 8.4827 24.1025C8.3747 23.1665 8.2667 21.6185 8.4827 20.5505L9.8627 14.6225C9.8627 14.6225 9.5147 13.9265 9.5147 12.8225C9.5147 11.1665 10.5467 9.93053 11.7227 9.93053C12.7547 9.93053 13.2347 10.6865 13.2347 11.6585C13.2347 12.6905 12.5507 14.1665 12.2027 15.5825C11.9987 16.7585 12.8267 17.7905 14.0267 17.7905C16.1627 17.7905 17.8187 15.5105 17.8187 12.2945C17.8187 9.41453 15.7547 7.44653 12.7907 7.44653C9.4067 7.44653 7.4147 9.96653 7.4147 12.6185C7.4147 13.6505 7.7507 14.6945 8.3027 15.3785C8.4107 15.4505 8.4107 15.5465 8.3747 15.7265L8.0267 17.0345C8.0267 17.2385 7.8947 17.3105 7.6907 17.1665C6.1547 16.4945 5.2667 14.3105 5.2667 12.5465C5.2667 8.75453 7.9547 5.31053 13.1387 5.31053C17.2667 5.31053 20.4827 8.27453 20.4827 12.2105C20.4827 16.3385 17.9267 19.6505 14.2667 19.6505C13.1027 19.6505 11.9627 19.0265 11.5547 18.2945L10.7507 21.1385C10.4747 22.1705 9.7187 23.5505 9.2027 24.3785V24.3425Z" fill="white"/>
</svg>
