<svg width="47" height="48" viewBox="0 0 47 48" fill="none" xmlns="http://www.w3.org/2000/svg">
<path d="M9.0944 0.53125H0.758064C0.339423 0.53125 0 0.870673 0 1.28931V46.7732C0 47.1918 0.339423 47.5312 0.758064 47.5312H9.0944C9.51305 47.5312 9.85247 47.1918 9.85247 46.7732V1.28931C9.85247 0.870673 9.51305 0.53125 9.0944 0.53125ZM8.33634 46.0151H1.51613V41.8458H3.0098C3.42844 41.8458 3.76786 41.5063 3.76786 41.0877C3.76786 40.6691 3.42844 40.3296 3.0098 40.3296H1.51613V36.1603H3.90081C4.31945 36.1603 4.65887 35.8209 4.65887 35.4022C4.65887 34.9836 4.31945 34.6442 3.90081 34.6442H1.51613V30.4748H3.0098C3.42844 30.4748 3.76786 30.1354 3.76786 29.7167C3.76786 29.2981 3.42844 28.9587 3.0098 28.9587H1.51613V24.7893H3.90081C4.31945 24.7893 4.65887 24.4499 4.65887 24.0312C4.65887 23.6126 4.31945 23.2732 3.90081 23.2732H1.51613V19.1038H3.0098C3.42844 19.1038 3.76786 18.7644 3.76786 18.3458C3.76786 17.9271 3.42844 17.5877 3.0098 17.5877H1.51613V13.4183H3.90081C4.31945 13.4183 4.65887 13.0789 4.65887 12.6603C4.65887 12.2416 4.31945 11.9022 3.90081 11.9022H1.51613V7.73286H3.0098C3.42844 7.73286 3.76786 7.39344 3.76786 6.9748C3.76786 6.55616 3.42844 6.21673 3.0098 6.21673H1.51613V2.04738H8.33634V46.0151ZM41.3142 45.1027C41.3142 45.3361 41.2067 45.5565 41.0228 45.7001L38.8837 47.3706C38.7451 47.4788 38.5807 47.5312 38.4177 47.5312C38.1922 47.5312 37.9692 47.4312 37.8196 47.2397C37.562 46.9097 37.6206 46.4334 37.9505 46.1756L38.3539 45.8607H14.7452L15.1486 46.1756C15.4785 46.4334 15.5372 46.9097 15.2795 47.2397C15.0217 47.5697 14.5453 47.6282 14.2154 47.3705L12.0763 45.7001C11.8924 45.5564 11.7849 45.336 11.7849 45.1026C11.7849 44.8692 11.8924 44.6488 12.0763 44.5051L14.2155 42.8347C14.5454 42.5769 15.0218 42.6356 15.2795 42.9655C15.5372 43.2955 15.4786 43.7719 15.1487 44.0296L14.7454 44.3445H38.3539L37.9506 44.0296C37.6207 43.7719 37.562 43.2955 37.8197 42.9655C38.0775 42.6356 38.5538 42.5769 38.8838 42.8347L41.0229 44.5051C41.2067 44.6489 41.3142 44.8692 41.3142 45.1027ZM12.5427 41.8456H39.43C39.8486 41.8456 40.188 41.5062 40.188 41.0875V14.1591C40.188 13.7404 39.8486 13.401 39.43 13.401H35.9823C36.4981 12.297 36.8153 11.1894 36.8153 10.1084C36.8153 5.84831 33.3495 2.38263 29.0896 2.38263C24.8296 2.38263 21.3638 5.84841 21.3638 10.1084C21.3638 11.1894 21.6808 12.2969 22.1968 13.401H12.5428C12.1242 13.401 11.7848 13.7404 11.7848 14.1591V41.0875C11.7847 41.5062 12.1241 41.8456 12.5427 41.8456ZM13.3008 23.9791L16.2828 20.9972L32.1614 40.3294H13.3008V23.9791ZM34.1233 40.3294L30.8234 36.3118L38.6719 28.4633V40.3295H34.1233V40.3294ZM29.0896 3.89876C32.5136 3.89876 35.2992 6.68436 35.2992 10.1084C35.2992 13.0357 32.0622 16.7246 29.6987 19.4181C29.4894 19.6568 29.2856 19.8889 29.0895 20.1142C28.8933 19.8889 28.6897 19.6568 28.4804 19.4182C26.1168 16.7246 22.8798 13.0357 22.8798 10.1084C22.8799 6.68436 25.6656 3.89876 29.0896 3.89876ZM27.3408 20.4183C27.7607 20.8967 28.1573 21.3486 28.5107 21.7666C28.6547 21.9369 28.8664 22.0352 29.0895 22.0352C29.3126 22.0352 29.5242 21.9369 29.6683 21.7666C30.0217 21.3486 30.4184 20.8967 30.8382 20.4181C30.9586 20.2809 31.0806 20.1417 31.2034 20.0017C34.257 20.2624 35.5859 20.9822 35.8015 21.2783C35.6848 21.4301 35.1855 21.8014 33.8879 22.13C32.5745 22.4627 30.8704 22.646 29.0895 22.646C27.3086 22.646 25.6046 22.4627 24.291 22.13C22.9935 21.8014 22.4941 21.43 22.3775 21.2783C22.593 20.9822 23.922 20.2624 26.9756 20.0017C27.0983 20.1418 27.2205 20.2811 27.3408 20.4183ZM25.7768 18.6116C23.7552 18.8882 20.8436 19.5816 20.8436 21.2794C20.8436 23.5549 26.0268 24.162 29.0895 24.162C32.1522 24.162 37.3353 23.5549 37.3353 21.2794C37.3353 19.5816 34.4238 18.8882 32.4021 18.6116C33.3948 17.4349 34.373 16.1877 35.156 14.917H38.6719V26.319L29.8565 35.1344L17.36 19.92L22.3628 14.9171H23.0231C23.806 16.1877 24.7843 17.4349 25.7768 18.6116ZM20.2187 14.9171L13.3009 21.835V14.9171H20.2187ZM46.8394 39.4146L45.1689 41.5537C45.0252 41.7376 44.8048 41.8452 44.5714 41.8452C44.3381 41.8452 44.1176 41.7376 43.974 41.5537L42.3035 39.4147C42.0459 39.0847 42.1044 38.6084 42.4344 38.3506C42.7642 38.093 43.2407 38.1514 43.4984 38.4815L43.8134 38.8849V17.1713L43.4983 17.5747C43.2406 17.9048 42.7641 17.9632 42.4343 17.7056C42.1043 17.4478 42.0457 16.9715 42.3034 16.6415L43.974 14.5025C44.1176 14.3185 44.3381 14.211 44.5714 14.211C44.8048 14.211 45.0252 14.3185 45.1689 14.5025L46.8393 16.6415C47.0969 16.9715 47.0384 17.4479 46.7084 17.7056C46.3784 17.9631 45.902 17.9046 45.6444 17.5747L45.3295 17.1714V38.8847L45.6445 38.4814C45.9022 38.1513 46.3786 38.0928 46.7085 38.3505C47.0385 38.6082 47.097 39.0846 46.8394 39.4146ZM34.3506 10.1084C34.3506 7.20743 31.9905 4.84729 29.0896 4.84729C26.1887 4.84729 23.8285 7.20733 23.8285 10.1084C23.8285 13.0094 26.1887 15.3694 29.0896 15.3694C31.9905 15.3694 34.3506 13.0094 34.3506 10.1084ZM25.3447 10.1084C25.3447 8.04339 27.0246 6.36342 29.0896 6.36342C31.1546 6.36342 32.8345 8.04339 32.8345 10.1084C32.8345 12.1733 31.1546 13.8533 29.0896 13.8533C27.0246 13.8533 25.3447 12.1733 25.3447 10.1084Z" fill="#E84600"/>
</svg>
