<svg width="28" height="23" viewBox="0 0 28 23" fill="none" xmlns="http://www.w3.org/2000/svg">
<path d="M0.5 22.3801V15.1001C0.5 12.3801 0.98 9.87345 1.94 7.58012C2.9 5.28679 4.52667 2.96679 6.82 0.620117L10.98 3.90012C9.27333 5.66012 8.07333 7.28679 7.38 8.78012C6.68667 10.2735 6.34 11.8735 6.34 13.5801L3.86 11.2601H11.7V22.3801H0.5ZM16.42 22.3801V15.1001C16.42 12.3801 16.9 9.87345 17.86 7.58012C18.82 5.28679 20.4467 2.96679 22.74 0.620117L26.9 3.90012C25.1933 5.66012 23.9933 7.28679 23.3 8.78012C22.6067 10.2735 22.26 11.8735 22.26 13.5801L19.78 11.2601H27.62V22.3801H16.42Z" fill="#E84600"/>
</svg>
