<svg width="41" height="32" viewBox="0 0 41 32" fill="none" xmlns="http://www.w3.org/2000/svg">
<path d="M19.2551 1.1001C19.2279 1.77748 19.2003 2.45484 19.1731 3.13232L19.1516 3.65283H21.8489L21.8284 3.13232C21.801 2.45487 21.7736 1.77758 21.7463 1.1001H24.8713C27.4841 11.0229 30.0965 20.946 32.7092 30.8687H22.9426C22.9149 30.1777 22.8866 29.4864 22.8586 28.7954L22.8401 28.3159H18.1614L18.1418 28.7954C18.114 29.4863 18.0866 30.1777 18.0588 30.8687H8.29126C10.904 20.9456 13.5173 11.023 16.1301 1.1001H19.2551ZM19.0803 17.396H18.5999L18.5803 17.8755C18.4853 20.2413 18.3901 22.6073 18.2952 24.9731L18.2747 25.4937H22.7268L22.7053 24.9731C22.6104 22.6073 22.5153 20.2413 22.4202 17.8755L22.4006 17.395H20.5002C20.0269 17.3951 19.5536 17.396 19.0803 17.396ZM19.0188 6.95459C18.9239 9.32072 18.829 11.6874 18.7336 14.0532L18.7131 14.5737H22.2874L22.2668 14.0532C22.1716 11.6872 22.0767 9.32072 21.9817 6.95459L21.9622 6.4751H19.0383L19.0188 6.95459Z" stroke="#E84600"/>
<path d="M27.5615 1.1001C31.626 11.023 35.6907 20.9456 39.7549 30.8687H37.1504C33.8395 20.9459 30.5305 11.0229 27.2197 1.1001H27.5615Z" stroke="#E84600"/>
<path d="M13.7803 1.1001C10.4696 11.023 7.16012 20.9459 3.84961 30.8687H1.24512C5.30927 20.9456 9.37399 11.0231 13.4385 1.1001H13.7803Z" stroke="#E84600"/>
</svg>
