<svg width="17" height="16" viewBox="0 0 17 16" fill="none" xmlns="http://www.w3.org/2000/svg">
<path d="M8.66456 0C13.083 0 16.6646 3.5816 16.6646 7.99999C16.6646 12.4184 13.083 16 8.66456 16C7.25076 16.0024 5.86182 15.6283 4.64056 14.916L0.667763 16L1.74936 12.0256C1.03653 10.8039 0.662085 9.41441 0.664563 7.99999C0.664563 3.5816 4.24616 0 8.66456 0ZM5.93816 4.24L5.77816 4.2464C5.67471 4.25352 5.57364 4.2807 5.48056 4.3264C5.39382 4.37561 5.31461 4.43703 5.24536 4.5088C5.14936 4.5992 5.09496 4.6776 5.03656 4.7536C4.74066 5.13832 4.58134 5.61065 4.58376 6.096C4.58536 6.488 4.68776 6.8696 4.84776 7.22639C5.17496 7.94799 5.71336 8.71199 6.42376 9.41999C6.59496 9.59039 6.76296 9.76159 6.94376 9.92079C7.8265 10.6979 8.87838 11.2584 10.0158 11.5576L10.4702 11.6272C10.6182 11.6352 10.7662 11.624 10.915 11.6168C11.1479 11.6045 11.3753 11.5414 11.5814 11.432C11.686 11.3779 11.7883 11.3191 11.8878 11.256C11.8878 11.256 11.9216 11.2331 11.9878 11.184C12.0958 11.104 12.1622 11.0472 12.2518 10.9536C12.319 10.8843 12.375 10.8037 12.4198 10.712C12.4822 10.5816 12.5446 10.3328 12.5702 10.1256C12.5894 9.96719 12.5838 9.88079 12.5814 9.82719C12.5782 9.74159 12.507 9.65279 12.4294 9.61519L11.9638 9.40639C11.9638 9.40639 11.2678 9.10319 10.8422 8.90959C10.7976 8.8902 10.7499 8.87908 10.7014 8.87679C10.6466 8.87107 10.5913 8.87718 10.5391 8.8947C10.4869 8.91223 10.4391 8.94077 10.399 8.97839C10.395 8.97679 10.3414 9.02239 9.76296 9.72319C9.72976 9.7678 9.68403 9.80152 9.6316 9.82004C9.57917 9.83856 9.52241 9.84105 9.46856 9.82719C9.41642 9.8133 9.36535 9.79565 9.31576 9.77439C9.21656 9.73279 9.18216 9.71679 9.11416 9.68799C8.65486 9.48792 8.22971 9.21718 7.85416 8.88559C7.75336 8.79759 7.65976 8.70159 7.56376 8.60879C7.24905 8.30736 6.97476 7.96638 6.74776 7.59439L6.70056 7.51839C6.66717 7.46703 6.63979 7.412 6.61896 7.35439C6.58856 7.23679 6.66776 7.1424 6.66776 7.1424C6.66776 7.1424 6.86216 6.92959 6.95256 6.81439C7.04056 6.70239 7.11496 6.5936 7.16296 6.516C7.25736 6.364 7.28696 6.208 7.23736 6.0872C7.01336 5.54 6.78189 4.99573 6.54296 4.4544C6.49576 4.3472 6.35576 4.2704 6.22856 4.2552C6.18536 4.24986 6.14216 4.2456 6.09896 4.2424C5.99154 4.23624 5.88383 4.2373 5.77656 4.2456L5.93816 4.24Z" fill="#2A2A2A"/>
</svg>
