<svg width="17" height="10" viewBox="0 0 17 10" fill="none" xmlns="http://www.w3.org/2000/svg">
<path d="M7.07693 6.77764L11.2001 4.76573L7.07693 2.75383V6.77764ZM16.2607 1.52657C16.364 1.84177 16.4355 2.26427 16.4832 2.80077C16.5388 3.33728 16.5626 3.80002 16.5626 4.2024L16.6103 4.76573C16.6103 6.23442 16.4832 7.31415 16.2607 8.0049C16.0621 8.60847 15.6013 8.99744 14.8863 9.1651C14.5129 9.25228 13.8297 9.31264 12.781 9.35288C11.7483 9.39982 10.8029 9.41994 9.92899 9.41994L8.66582 9.46018C5.3371 9.46018 3.2636 9.35288 2.44532 9.1651C1.73032 8.99744 1.26954 8.60847 1.07093 8.0049C0.967652 7.6897 0.896152 7.2672 0.848486 6.73069C0.792875 6.19419 0.769041 5.73145 0.769041 5.32907L0.721375 4.76573C0.721375 3.29704 0.848486 2.21732 1.07093 1.52657C1.26954 0.922996 1.73032 0.534027 2.44532 0.366368C2.81871 0.279186 3.50193 0.218829 4.5506 0.178591C5.58337 0.131646 6.52876 0.111527 7.40265 0.111527L8.66582 0.0712891C11.9945 0.0712891 14.068 0.178591 14.8863 0.366368C15.6013 0.534027 16.0621 0.922996 16.2607 1.52657Z" fill="white"/>
</svg>
